<?xml version="1.0" encoding="iso-8859-1"?>
<!-- Uploaded to: SVG Repo, www.svgrepo.com, Generator: SVG Repo Mixer Tools -->
<svg fill="#000000" height="800px" width="800px" version="1.1" id="Layer_1" xmlns="http://www.w3.org/2000/svg" xmlns:xlink="http://www.w3.org/1999/xlink" 
	 viewBox="0 0 512 512" xml:space="preserve">
<g>
	<g>
		<path d="M495.304,345.043V188.722C505.661,176.954,512,161.568,512,144.696c0-30.484-43.5-109.511-52.228-125.044
			c-2.956-5.26-8.521-8.521-14.554-8.521s-11.598,3.261-14.554,8.521c-8.729,15.533-52.229,94.56-52.229,125.044
			c0,16.873,6.339,32.258,16.696,44.026v156.321H372.87V512h122.435c9.217,0,16.696-7.473,16.696-16.696V361.739
			C512,352.516,504.521,345.043,495.304,345.043z M461.913,345.043h-33.391V209.281c5.348,1.383,10.921,2.197,16.696,2.197
			c5.774,0,11.347-0.814,16.696-2.197V345.043z"/>
	</g>
</g>
<g>
	<g>
		<path d="M217.043,345.043c-9.217,0-16.696,7.473-16.696,16.696v133.565c0,9.223,7.479,16.696,16.696,16.696h122.435V345.043
			H217.043z"/>
	</g>
</g>
<g>
	<g>
		<path d="M350.609,0H16.696C7.479,0,0,7.473,0,16.696c0,9.223,7.479,16.696,16.696,16.696h16.696v445.217H16.696
			C7.479,478.609,0,486.082,0,495.304C0,504.527,7.479,512,16.696,512h150.261c0-43.676,0,29.985,0-150.261
			c0-27.619,22.468-50.087,50.087-50.087h116.87V33.391h16.696c9.217,0,16.696-7.473,16.696-16.696
			C367.304,7.473,359.826,0,350.609,0z M257.902,213.239c8.25,4.125,11.587,14.152,7.467,22.402
			c-4.094,8.188-14.066,11.617-22.402,7.467c-11.13-5.565-25.756-12.315-42.62-30.442v48.898c0,9.223-7.479,16.696-16.696,16.696
			c-9.217,0-16.696-7.473-16.696-16.696v-48.898c-16.864,18.127-31.489,24.877-42.62,30.442c-8.337,4.149-18.308,0.72-22.402-7.467
			c-4.119-8.25-0.782-18.277,7.467-22.402c29.38-14.69,49.593-34.452,55.856-68.543H116.87c-9.217,0-16.696-7.473-16.696-16.696
			c0-9.223,7.479-16.696,16.696-16.696h50.087V94.609c0-9.223,7.479-16.696,16.696-16.696c9.217,0,16.696,7.473,16.696,16.696
			v16.696h50.087c9.217,0,16.696,7.473,16.696,16.696c0,9.223-7.479,16.696-16.696,16.696h-48.387
			C208.343,178.957,228.742,198.658,257.902,213.239z"/>
	</g>
</g>
</svg>